{"title":"Barely.Lethal.2015.BRRip.XViD.AC3-Shelby","uid":12150377,"size":1475060216,"categoryP":"video","categoryS":"movies","magnet":"?xt=urn:btih:86d2258825950fb340ed978f14e8d0b40a32fb3b&amp;dn=Barely.Lethal.2015.BRRip.XViD.AC3-Shelby&amp;tr=udp%3A%2F%2Ftracker.openbittorrent.com%3A80&amp;tr=udp%3A%2F%2Fopen.demonii.com%3A1337&amp;tr=udp%3A%2F%2Ftracker.coppersurfer.tk%3A6969&amp;tr=udp%3A%2F%2Fexodus.desync.com%3A6969","seeders":1,"leechers":1,"uploader":null,"files":2,"time":1437613292,"description":"Barely Lethal 2015 BRRip XViD AC3-Shelby\n\nGeneral\nComplete name                            : Barely.Lethal.2015.BRRip.XViD.AC3-Shelby.avi\nFormat                                   : AVI\nFormat/Info                              : Audio Video Interleave\nFile size                                : 1.37 GiB\nDuration                                 : 1h 38mn\nOverall bit rate                         : 1 994 Kbps\nWriting application                      : Lavf55.19.104\nWriting library                          : \n\nVideo\nID                                       : 0\nFormat                                   : MPEG-4 Visual\nFormat profile                           : Simple@L3\nFormat settings, BVOP                    : No\nFormat settings, QPel                    : No\nFormat settings, GMC                     : No warppoints\nFormat settings, Matrix                  : Default (H.263)\nCodec ID                                 : XVID\nCodec ID/Hint                            : XviD\nDuration                                 : 1h 38mn\nBit rate                                 : 1 536 Kbps\nWidth                                    : 720 pixels\nHeight                                   : 400 pixels\nDisplay aspect ratio                     : 1.85:1\nFrame rate                               : 23.976 fps\nColor space                              : YUV\nChroma subsampling                       : 4:2:0\nBit depth                                : 8 bits\nScan type                                : Progressive\nCompression mode                         : Lossy\nBits/(Pixel*Frame)                       : 0.222\nStream size                              : 1.06 GiB (77%)\nWriting library                          : XviD 64\n\nAudio\nID                                       : 1\nFormat                                   : AC-3\nFormat/Info                              : Audio Coding 3\nMode extension                           : CM (complete main)\nFormat settings, Endianness              : Big\nCodec ID                                 : 2000\nDuration                                 : 1h 38mn\nBit rate mode                            : Constant\nBit rate                                 : 448 Kbps\nChannel count                            : 2 channels\nChannel positions                        : Front: L R\nSampling rate                            : 48.0 KHz\nBit depth                                : 16 bits\nCompression mode                         : Lossy\nStream size                              : 316 MiB (22%)\nAlignment                                : Aligned on interleaves\nInterleave, duration                     : 32 ms (0.77 video frame)\nInterleave, preload duration             : 512 ms\n\n\n\nAction:Adventure:Comedy\n\nA teenage special ops agent coveting a &quot;normal&quot; adolescence fakes her own death and enrolls in a suburban high school. She quickly learns that surviving the treacherous waters of high school is more challenging than international espionage.\n\n\nDirector: Kyle Newman \n\nWriter: John D'Arco \n\nStars: Jaime King, Samuel L. Jackson, Madeleine Stack\n &lt;a href=&quot;\nhttp://www.imdb.com/title/tt1731701/&quot; rel=&quot;nofollow&quot; target=&quot;_NEW&quot;&gt;\nhttp://www.imdb.com/title/tt1731701/&lt;/a&gt;","torrent":{"xt":"urn:btih:86d2258825950fb340ed978f14e8d0b40a32fb3b","amp;dn":"Barely.Lethal.2015.BRRip.XViD.AC3-Shelby","amp;tr":["udp%3A%2F%2Ftracker.openbittorrent.com%3A80","udp%3A%2F%2Fopen.demonii.com%3A1337","udp%3A%2F%2Ftracker.coppersurfer.tk%3A6969","udp%3A%2F%2Fexodus.desync.com%3A6969"],"infoHash":"86d2258825950fb340ed978f14e8d0b40a32fb3b","infoHashBuffer":{"type":"Buffer","data":[134,210,37,136,37,149,15,179,64,237,151,143,20,232,208,180,10,50,251,59]},"announce":[],"urlList":[]}}